<?xml version="1.0" encoding="UTF-8"?>
<svg width="144px" height="130px" viewBox="0 0 144 130" version="1.1" xmlns="http://www.w3.org/2000/svg" xmlns:xlink="http://www.w3.org/1999/xlink">
    <title>icon/live-connection</title>
    <defs>
        <linearGradient x1="50%" y1="0%" x2="50%" y2="100%" id="linearGradient-1">
            <stop stop-color="#0073AB" offset="0%"></stop>
            <stop stop-color="#003F72" offset="100%"></stop>
        </linearGradient>
        <linearGradient x1="84.5390128%" y1="77.2226704%" x2="15.4609872%" y2="22.7773296%" id="linearGradient-2">
            <stop stop-color="#0073AB" offset="0%"></stop>
            <stop stop-color="#003F72" offset="100%"></stop>
        </linearGradient>
        <polygon id="path-3" points="6.94004858e-14 1.00689769e-13 66.3460301 0 66.3460301 66 0 66 33.1730151 35.75"></polygon>
    </defs>
    <g id="Homepage-+-MIlitary-Crisis-Line" stroke="none" stroke-width="1" fill="none" fill-rule="evenodd">
        <g id="1.0-vcl-military-crisis-line-hp" transform="translate(-647.000000, -1076.000000)">
            <g id="value-prop-section" transform="translate(147.000000, 651.688154)">
                <g id="Value-Prop-1-Copy" transform="translate(397.000000, 424.311846)">
                    <g id="icon/live-connection" transform="translate(103.000000, 0.000000)">
                        <path d="M72.0216149,130 C111.798054,130 128.233607,111.965739 128.233607,72.1540304 C128.233607,32.342322 98.3215052,0 58.5450657,0 C18.7686261,0 0,18.1028169 0,57.9145253 C0,97.7262337 32.2451753,130 72.0216149,130 Z" id="Oval-2" fill="url(#linearGradient-1)" opacity="0.0389262355"></path>
                        <path d="M36.3443922,34.3446306 C10.6265707,58.2832637 10.8637094,79.8033279 34.845958,105.474367 C58.8282837,131.145335 97.6510344,133.998042 123.368921,110.05948 C149.086743,86.1208467 150.316779,63.1524667 126.334525,37.4814319 C102.352205,11.81046 62.0622793,10.4060679 36.3443922,34.3446306 Z" id="Oval-2-Copy" fill="url(#linearGradient-2)" opacity="0.0329078852"></path>
                        <g id="Group" transform="translate(38.069352, 39.000000)">
                            <g id="Oval-Clipped" transform="translate(0.776249, 0.000000)">
                                <mask id="mask-4" fill="white">
                                    <use xlink:href="#path-3"></use>
                                </mask>
                                <g id="path-1"></g>
                                <ellipse id="Oval" stroke="#003F72" stroke-width="4" mask="url(#mask-4)" cx="33.1730151" cy="33" rx="29.7908061" ry="29.625"></ellipse>
                            </g>
                            <polyline id="Line-30" stroke="#003F72" stroke-width="4" stroke-linecap="round" stroke-linejoin="round" points="20.9907782 53 12.6975244 53 12.6975244 61.25"></polyline>
                            <path d="M11.3551231,41.25 L11.7034397,38.4318 L5.10864432,38.4318 C5.54210505,38.0314 5.94847448,37.6772 6.32775262,37.3692 C6.70703076,37.0612 7.08243871,36.7532 7.45397648,36.4452 C8.1506098,35.8292 8.75048849,35.25555 9.25361255,34.72425 C9.75673661,34.19295 10.1708464,33.6655 10.495942,33.1419 C10.8210375,32.6183 11.0648592,32.08315 11.2274069,31.53645 C11.3899547,30.98975 11.4712286,30.393 11.4712286,29.7462 C11.4712286,28.237 11.0068064,27.0435 10.077962,26.1657 C9.14911755,25.2879 7.7868124,24.849 5.99104652,24.849 C4.96931765,24.849 4.11013657,24.9799 3.41350325,25.2417 C2.71686993,25.5035 2.14021235,25.86155 1.68353051,26.31585 C1.22684867,26.77015 0.86692146,27.29375 0.603748874,27.88665 C0.340576288,28.47955 0.139326663,29.1071 0,29.7693 L0,29.7693 L3.15807103,30.1389 C3.3748014,29.1687 3.70376713,28.51035 4.14496823,28.16385 C4.58616933,27.81735 5.19378839,27.6441 5.96782541,27.6441 C6.6180165,27.6441 7.13275112,27.85585 7.51202926,28.27935 C7.8913074,28.70285 8.08094647,29.2457 8.08094647,29.9079 C8.08094647,30.4161 7.99967258,30.88195 7.83712481,31.30545 C7.67457703,31.72895 7.43075537,32.1563 7.10565982,32.5875 C6.78056428,33.0187 6.37419484,33.4653 5.88655152,33.9273 C5.3989082,34.3893 4.82999099,34.9052 4.1797999,35.475 C3.51412806,36.0602 2.8561966,36.61845 2.2060055,37.14975 C1.55581441,37.68105 0.897882941,38.2393 0.232211105,38.8245 L0.232211105,38.8245 L0.232211105,41.25 L11.3551231,41.25 Z M23.7784172,41.25 L23.7784172,37.6695 L25.4735583,37.6695 L25.8218749,35.0823 L23.7784172,35.0823 L23.7784172,25.2879 L20.806115,25.2879 L13.4682441,35.475 L13.4682441,37.6695 L20.6900095,37.6695 L20.6900095,41.25 L23.7784172,41.25 Z M20.6900095,35.0823 L16.7888629,35.0823 L20.6900095,29.5152 L20.6900095,35.0823 Z M29.9784537,41.25 L35.3657513,24.2946 L32.138017,24.2946 L26.7507193,41.25 L29.9784537,41.25 Z M42.4714112,41.25 C43.137083,38.786 43.9072498,36.4606 44.7819117,34.2738 C45.6565735,32.087 46.6744322,29.9233 47.8354877,27.7827 L47.8354877,27.7827 L47.8354877,25.2879 L36.5035858,25.2879 L36.5035858,28.083 L44.1433311,28.083 C43.1216023,30.085 42.1734069,32.1794 41.2987451,34.3662 C40.4240833,36.553 39.6152146,38.8476 38.872139,41.25 L38.872139,41.25 L42.4714112,41.25 Z" id="24/7" fill="#C4262E" fill-rule="nonzero"></path>
                        </g>
                    </g>
                </g>
            </g>
        </g>
    </g>
</svg>