<svg xmlns="http://www.w3.org/2000/svg" width="143" height="130" viewBox="0 0 143 130">
  <defs>
    <linearGradient id="live-connection-a" x1="50%" x2="50%" y1="0%" y2="100%">
      <stop offset="0%" stop-color="#0073AB"/>
      <stop offset="100%" stop-color="#003F72"/>
    </linearGradient>
    <linearGradient id="live-connection-b" x1="84.539%" x2="15.461%" y1="77.322%" y2="22.678%">
      <stop offset="0%" stop-color="#0073AB"/>
      <stop offset="100%" stop-color="#003F72"/>
    </linearGradient>
  </defs>
  <g fill="none" fill-rule="evenodd">
    <path fill="url(#live-connection-a)" d="M71.890411,130 C111.594389,130 128,111.965739 128,72.1540304 C128,32.342322 98.14239,0 58.4384124,0 C18.7344347,0 0,18.1028169 0,57.9145253 C0,97.7262337 32.1864333,130 71.890411,130 Z" opacity=".039"/>
    <path fill="url(#live-connection-b)" d="M36.2782153,34.3446658 C10.6072119,58.2832637 10.8439187,79.8033279 34.7825166,105.474331 C58.7211145,131.145335 97.4731406,133.998042 123.144144,110.059445 C148.815147,86.1208467 150.042942,63.1524667 126.104344,37.4814633 C102.165746,11.81046 61.9492186,10.4060679 36.2782153,34.3446658 Z" opacity=".033"/>
    <g fill-rule="nonzero" transform="translate(41.062 35.4)">
      <path fill="#C4262E" d="M14.1783021,19.9905468 C14.1783021,19.0008689 13.4104478,18.1985076 12.4633399,18.1985076 C11.5162288,18.1985076 9.5550312,19.0008722 9.5550312,19.9905468 L9.5550312,30.4094532 C9.5550312,31.3991311 11.5162191,32.2014924 12.4633399,32.2014924 C13.410451,32.2014924 14.1783021,31.3991278 14.1783021,30.4094532 L14.1783021,19.9905468 Z"/>
      <path fill="#003F72" d="M37.6552907,40.5968467 C39.0240901,40.3363698 41.048383,39.9405888 42.3076841,39.4099122 C41.2639015,41.2913299 40.0572077,42.9977392 38.7185098,44.4340971 C39.1996976,47.298013 43.3891766,49.0428972 47.9900627,50.9584482 C54.9738896,53.8661162 62.7764923,56.5553854 62.7764923,64.9400851 C62.7974657,65.4863354 62.6536718,65.9281572 62.3451107,66.2655504 C62.0365495,66.6029436 61.3791825,66.9144268 60.3730096,67.2 L2.89416088,67.2 C2.01152224,67.2 1.34800595,67.0043795 0.903612007,66.6131386 C0.45921806,66.2218977 0.158014057,65.6642132 0,64.9400851 C0,56.2414919 7.83566031,53.8661552 14.8195,50.9584482 C19.4204372,49.0428972 23.609915,47.298013 24.0909506,44.4341491 C20.6798406,40.7740648 18.1251908,35.3615314 16.9420003,29.7642019 C16.0405911,25.4995043 15.926864,21.1027186 16.826511,17.2614258 C17.7579258,13.2847303 19.7690659,9.88860134 23.1038097,7.7870324 C25.3047477,6.40000287 28.0512721,5.6 31.4046854,5.6 C34.7582522,5.6 37.5047638,6.40005746 39.705753,7.78713638 C43.040484,9.88875732 45.0516318,13.2848343 45.9830516,17.2616728 C46.8758524,21.0736415 46.7704319,25.4327064 45.8878511,29.6668061 C45.2977187,31.6828596 44.0729513,33.2540092 42.2614656,34.3982186 C42.0076809,34.558496 41.0687142,34.7092041 40.7956985,34.8507004 C41.5320802,33.0448155 42.1183866,31.132072 42.5288359,29.1902775 C43.3492422,25.3089241 43.4595461,21.3361671 42.6549476,17.9007444 C41.8820669,14.6007244 40.9348914,12.5043332 38.2777892,10.8298085 C36.5020059,9.71068057 34.2322974,9.06516702 31.4046755,9.06516702 C28.5771559,9.06516702 26.3074984,9.71062728 24.5317663,10.8297045 C21.8746129,12.5042292 20.2528281,14.6005685 19.4799461,17.9004844 C18.6753476,21.3359591 19.4602635,25.3087161 20.2806694,29.1901215 C21.4101376,34.5333743 23.8698436,39.6573467 27.1298707,42.9378433 L27.5343342,43.3447806 L27.5295012,43.9289854 C27.4882191,48.9515325 22.2801288,51.1199254 16.5278288,53.5148777 C12.003708,55.3985177 7.09216018,57.0155055 4.78179832,60.4769996 C4.15647031,61.4138958 3.2756685,62.8430653 3.68230952,63.734924 C4.08895054,64.6267826 8.74777807,64.4498793 9.61014264,64.4498793 C20.9603803,64.4498793 30.3696201,64.4498793 52.6274108,64.4498793 C53.5307464,64.4498793 58.9144816,64.5845381 59.4282195,63.734924 C59.9419573,62.8853099 58.6503403,61.4070302 58.0217978,60.4680038 C55.708957,57.012679 50.8020168,55.3969 46.2817579,53.5149297 C40.5294962,51.1199774 35.3215166,48.9515715 35.2799831,43.9289854 L35.2751501,43.3447806 L35.6796136,42.9378433 C36.3765017,42.2364737 37.0367652,41.4506883 37.6552907,40.5968467 Z"/>
      <path fill="#C4262E" d="M36.0888159,36.4086576 C35.6349475,36.3793694 35.245297,36.7599021 35.2186452,37.2586576 C35.1919929,37.7574131 35.5382783,38.1855996 35.9921468,38.2148872 C38.6538216,38.3943106 42.8679079,37.8832403 46.2270212,35.5895024 C48.6246039,33.9523072 50.5885431,31.427372 51.2785808,27.6359096 C51.3675518,27.1449713 51.0774951,26.6676317 50.6307392,26.5698627 C50.1839844,26.4720926 49.7496045,26.7908355 49.6606345,27.2817751 C49.0736012,30.5072191 47.4001534,32.6570391 45.3567972,34.0523855 C42.3364157,36.1148255 38.5118772,36.5719759 36.0888122,36.4086671 L36.0888159,36.4086576 Z"/>
      <path fill="#C4262E" d="M11.483871,17.4168179 C11.483871,12.8207372 13.3327561,8.64389288 16.3114164,5.61705768 C19.2745807,2.60585776 24.023092,0 28.5055876,0 L33.8675939,0 C38.3500895,0 43.0986141,2.6058722 46.0617651,5.61705768 C49.0403722,8.64393619 50.8893106,12.8207805 50.8893106,17.4168179 L50.8893106,28 L48.4478355,28 L48.4478355,17.4168179 C48.4478355,13.3682609 46.8165335,9.6862452 44.188483,7.01562885 C41.5449763,4.32926171 37.8918719,2.6618445 33.8675939,2.6618445 L28.5055876,2.6618445 C24.4813096,2.6618445 20.8282052,4.32926171 18.1846985,7.01562885 C15.5565815,9.68618745 13.9253461,13.3682032 13.9253461,17.4168179 L13.9253461,28 L11.483871,28 L11.483871,17.4168179 Z"/>
      <path fill="#C4262E" d="M47.8346011,19.9905468 C47.8346011,19.0008689 48.6024554,18.1985076 49.5495633,18.1985076 C50.4966745,18.1985076 52.457872,19.0008722 52.457872,19.9905468 L52.457872,30.4094532 C52.457872,31.3991311 50.4966841,32.2014924 49.5495633,32.2014924 C48.6024522,32.2014924 47.8346011,31.3991278 47.8346011,30.4094532 L47.8346011,19.9905468 Z"/>
    </g>
  </g>
</svg>
